<?xml version="1.0" encoding="iso-8859-1"?>
<svg version="1.1" id="Layer_1" xmlns="http://www.w3.org/2000/svg" xmlns:xlink="http://www.w3.org/1999/xlink" x="0px" y="0px" viewBox="0 0 297 297" style="enable-background:new 0 0 297 297;" xml:space="preserve">
<g>
	<g>
		<g>
			<g>
				<circle style="fill:#ced4da;" cx="148.5" cy="148.5" r="148.5"/>
			</g>
		</g>
	</g>
	<path style="fill:#adb5bd;" d="M296.956,145.021l-30.087-30.184c-5.667-0.488-13.419-4.594-19.369-5.338c-12-2-26-4-36,0
		c-53,20-102,44-149,78c-5.703,4.435-19.637-1.831-28.965-3.041l112.447,112.509c0.839,0.014,1.676,0.032,2.518,0.032
		c82.014,0,148.5-66.486,148.5-148.5C297,147.337,296.983,146.178,296.956,145.021z"/>
	<path style="fill:#f7f9fa;" d="M64.756,194.453c-7.923,0-21.18-1.519-31.591-10.302c-9.405-7.936-14.335-19.899-14.649-35.561
		c-0.31-15.365,4.115-27.205,13.151-35.192c15.571-13.764,38.93-10.576,39.919-10.436c2.46,0.355,4.166,2.637,3.812,5.097
		c-0.354,2.459-2.634,4.152-5.091,3.813c-0.298-0.042-20.335-2.681-32.716,8.303c-6.939,6.156-10.33,15.655-10.077,28.234
		c0.26,12.934,4.099,22.632,11.41,28.826c12.417,10.519,31.173,7.924,31.36,7.896c2.452-0.362,4.742,1.338,5.106,3.793
		c0.363,2.454-1.325,4.739-3.779,5.108C71.305,194.079,68.686,194.453,64.756,194.453z"/>
	<path style="fill:#FFFFFF;" d="M232.244,194.453c-3.932,0-6.549-0.374-6.855-0.42c-2.458-0.369-4.151-2.661-3.782-5.118
		c0.369-2.458,2.663-4.146,5.118-3.782c0.179,0.025,18.936,2.62,31.352-7.897c7.312-6.194,11.15-15.893,11.41-28.826
		c0.254-12.601-3.149-22.111-10.113-28.267c-12.487-11.035-32.474-8.3-32.674-8.271c-2.458,0.356-4.742-1.352-5.097-3.812
		s1.352-4.741,3.812-5.097c0.988-0.141,24.346-3.329,39.919,10.436c9.036,7.987,13.461,19.827,13.151,35.192
		c-0.314,15.661-5.244,27.625-14.649,35.561C253.425,192.934,240.168,194.453,232.244,194.453z"/>
	<path style="fill:#FFFFFF;" d="M63.188,195.034c56.875,4.964,113.749,4.964,170.624,0c9.1-31.022,9.1-62.045,0-93.067
		c-56.875-4.964-113.749-4.964-170.624,0C54.088,132.989,54.088,164.011,63.188,195.034z"/>
	<path style="fill:#f7f7f7;" d="M233.812,101.966c-28.882-2.521-57.763-3.755-86.645-3.716v100.498
		c28.882,0.04,57.763-1.195,86.645-3.715C242.912,164.011,242.912,132.989,233.812,101.966z"/>
	<path style="fill:#fafcfb;" d="M59.053,119.3c-3.583,19.466-3.583,38.933,0,58.399c59.632,2.425,119.263,2.425,178.895,0
		c3.583-19.466,3.583-38.933,0-58.399C178.316,116.875,118.684,116.875,59.053,119.3z"/>
	<path style="fill:#f2f4f5;" d="M237.947,119.3c-30.26-1.231-60.52-1.834-90.78-1.816v62.031c30.26,0.018,60.52-0.585,90.78-1.816
		C241.53,158.233,241.53,138.767,237.947,119.3z"/>
</g>
<g>
</g>
<g>
</g>
<g>
</g>
<g>
</g>
<g>
</g>
<g>
</g>
<g>
</g>
<g>
</g>
<g>
</g>
<g>
</g>
<g>
</g>
<g>
</g>
<g>
</g>
<g>
</g>
<g>
</g>
</svg>
