<?xml version="1.0" standalone="no"?>
<!DOCTYPE svg PUBLIC "-//W3C//DTD SVG 20010904//EN"
 "http://www.w3.org/TR/2001/REC-SVG-20010904/DTD/svg10.dtd">
<svg version="1.0" xmlns="http://www.w3.org/2000/svg"
 width="72.000000pt" height="72.000000pt" viewBox="0 0 72.000000 72.000000"
 preserveAspectRatio="xMidYMid meet">

<g transform="translate(0.000000,72.000000) scale(0.100000,-0.100000)"
fill="#fff" stroke="none">
<path d="M500 713 c-32 -12 -70 -58 -76 -90 -4 -22 0 -50 10 -78 23 -60 82
-135 106 -135 24 0 82 76 106 137 21 54 12 101 -25 137 -29 28 -89 42 -121 29z
m70 -88 c26 -32 -13 -81 -47 -59 -23 14 -28 41 -13 59 16 19 44 19 60 0z"/>
<path d="M185 599 c-38 -16 -76 -37 -83 -46 -9 -13 -12 -68 -10 -217 l3 -199
26 -19 c26 -19 26 -19 87 6 l62 25 90 -31 91 -30 80 32 c44 18 84 41 89 51 6
10 10 65 10 122 l0 105 -34 -34 c-19 -19 -44 -34 -56 -34 -12 0 -37 15 -56 34
l-34 34 0 -108 c0 -134 -3 -138 -91 -108 -35 11 -70 25 -76 31 -10 7 -13 53
-13 167 0 177 4 188 59 169 39 -14 42 -11 33 26 -6 20 -18 32 -43 41 -47 17
-55 16 -134 -17z"/>
</g>
</svg>
