<svg id="workspace" xmlns="http://www.w3.org/2000/svg" xmlns:xlink="http://www.w3.org/1999/xlink" style="text-rendering: geometricprecision;"><desc>Created with Snap</desc><defs><linearGradient x1="0" y1="0.5" x2="1" y2="0.5" id="linearGradientSk7imlbl41c"><stop offset="0%" stop-color="#9c88ff"></stop><stop offset="100%" stop-color="#9c88ff"></stop></linearGradient><linearGradient x1="0" y1="0.5" x2="1" y2="0.5" id="linearGradientSk7imlbl41l"><stop offset="0%" stop-color="#ffffff"></stop><stop offset="100%" stop-color="#ffffff"></stop></linearGradient><linearGradient x1="0" y1="0.5" x2="1" y2="0.5" id="linearGradientSk7imlbl422"><stop offset="0%" stop-color="#9c88ff"></stop><stop offset="100%" stop-color="#9c88ff"></stop></linearGradient><linearGradient x1="0" y1="0.5" x2="1" y2="0.5" id="linearGradientSk7imlbl425"><stop offset="0%" stop-color="#ffffff"></stop><stop offset="100%" stop-color="#ffffff"></stop></linearGradient><linearGradient x1="0" y1="0.5" x2="1" y2="0.5" id="linearGradientSk7imlbl42e"><stop offset="0%" stop-color="#9c88ff"></stop><stop offset="100%" stop-color="#9c88ff"></stop></linearGradient><linearGradient x1="0" y1="0.5" x2="1" y2="0.5" id="linearGradientSk7imlbl42h"><stop offset="0%" stop-color="#ffffff"></stop><stop offset="100%" stop-color="#ffffff"></stop></linearGradient><linearGradient x1="0" y1="0.5" x2="1" y2="0.5" id="linearGradientSk7imlbl43w"><stop offset="0%" stop-color="#9c88ff"></stop><stop offset="100%" stop-color="#9c88ff"></stop></linearGradient><linearGradient x1="0" y1="0.5" x2="1" y2="0.5" id="linearGradientSk7imlbl43z"><stop offset="0%" stop-color="#9c88ff"></stop><stop offset="100%" stop-color="#9c88ff"></stop></linearGradient></defs><g class="background-part"><rect x="0" y="0" width="1410" height="844" fill="rgba(255,255,255,0.25)" style=""></rect></g><g class="selector-part"><rect x="0" y="0" width="1087" height="844" fill="rgba(255,255,255,0)" style="transition: all 0.6s ease 0s;"></rect></g><g class="selector-part" transform="matrix(1,0,0,1,596,326)"><rect x="0" y="0" width="0" height="0" fill="rgba(255,255,255,0)" style="cursor: move;"></rect></g><g class="svg-clip svg-visible" transform="matrix(1.7271,0,0,1.7271,400.6445,341.6445)" style="cursor: move; opacity: 1;"><rect x="0" y="0" width="100" height="100" fill="none" class="svg-hitbox" style=""></rect><svg width="100.02919141177878" height="100" viewBox="-5.0291914117787835,-5,100.02919141177878,100"><desc>Created with Snap</desc><defs></defs><g></g><g></g><g></g><g><path fill="url('#linearGradientSk7imlbl42e')" d="M85.3,24.9L85.3,24.9C77.9,10.1,62.6,0,45,0S12.1,10.1,4.7,24.9v0c-6.6,13.2-6.9,30.1,3,46.8   C13.8,81.8,28.5,90,40.3,90H90V45C90,37.8,88.3,30.9,85.3,24.9z" stroke="none" style=""></path></g></svg></g><g class="svg-clip svg-visible" transform="matrix(0.2961,0,0,0.2961,438.1773,377.1773)" style="cursor: move; opacity: 1;"><rect x="0" y="0" width="350" height="350" fill="none" class="svg-hitbox" style=""></rect><svg width="350.66600000000005" height="350.666" viewBox="74.667,68.004,350.66600000000005,350.666" class="thumb"><desc>Created with Snap</desc><defs></defs><g></g><g></g><g></g><g></g><g><polygon points="420.333,203.67 289.667,203.67 289.667,73.004 210.333,73.004 210.333,203.67 79.667,203.67
	79.667,283.004 210.333,283.004 210.333,413.67 289.667,413.67 289.667,283.004 420.333,283.004 " fill="url('#linearGradientSk7imlbl42h')" stroke="none" style=""></polygon></g></svg></g><g class="svg-text svg-visible" transform="matrix(0.9659,0,0,0.9659,828,331)" style="pointer-events: fill; cursor: move; opacity: 1;"><path fill="none" style="" d="M-148.75,80 C-20,79 20,79 148.75,80"></path><path d="M-123.35 0L-123.35 0L-138.25 0Q-140.15 0 -141-0.85Q-141.85-1.7 -141.85-3.6L-141.85-3.6L-141.85-68.4Q-141.85-70.3 -141-71.15Q-140.15-72 -138.25-72L-138.25-72L-122.15-72Q-120.55-72 -119.5-71.3Q-118.45-70.6 -117.55-69L-117.55-69L-108.55-52.7Q-108.05-51.8 -107.7-51.4Q-107.35-51 -106.75-51L-106.75-51L-105.85-51Q-105.25-51 -104.9-51.4Q-104.55-51.8 -104.05-52.7L-104.05-52.7L-95.15-69Q-94.25-70.6 -93.2-71.3Q-92.15-72 -90.55-72L-90.55-72L-74.35-72Q-72.45-72 -71.6-71.15Q-70.75-70.3 -70.75-68.4L-70.75-68.4L-70.75-3.6Q-70.75-1.7 -71.6-0.85Q-72.45 0 -74.35 0L-74.35 0L-89.75 0Q-91.65 0 -92.5-0.85Q-93.35-1.7 -93.35-3.6L-93.35-3.6L-93.35-38.8L-99.25-27.9Q-100.15-26.2 -101.4-25.45Q-102.65-24.7 -104.55-24.7L-104.55-24.7L-108.55-24.7Q-110.45-24.7 -111.7-25.45Q-112.95-26.2 -113.85-27.9L-113.85-27.9L-119.75-38.8L-119.75-3.6Q-119.75-1.7 -120.6-0.85Q-121.45 0 -123.35 0ZM-30.85-51L-30.85-51L-35.55-35.8L-19.85-35.8L-24.550000000000004-51Q-24.950000000000003-51.9 -25.4-52.3Q-25.85-52.7 -26.450000000000003-52.7L-26.450000000000003-52.7L-28.950000000000003-52.7Q-29.550000000000004-52.7 -30-52.3Q-30.450000000000003-51.9 -30.85-51ZM-36.55-17.6L-36.55-3.6Q-36.55-1.7 -37.400000000000006-0.85Q-38.25 0 -40.150000000000006 0L-40.150000000000006 0L-54.85 0Q-56.75 0 -57.6-0.85Q-58.45-1.7 -58.45-3.6L-58.45-3.6L-58.45-30Q-58.45-33 -57.5-36.9Q-56.550000000000004-40.8 -54.55-46L-54.55-46L-45.85-68.7Q-45.25-70.4 -44-71.2Q-42.75-72 -40.75-72L-40.75-72L-13.850000000000001-72Q-11.950000000000003-72 -10.700000000000003-71.2Q-9.450000000000003-70.4 -8.850000000000001-68.7L-8.850000000000001-68.7L-0.14999999999999858-46Q 1.8500000000000014-40.8  2.8000000000000043-36.9Q 3.749999999999993-33  3.749999999999993-30L 3.749999999999993-30L 3.749999999999993-3.6Q 3.749999999999993-1.7  2.8999999999999986-0.85Q 2.0500000000000043 0  0.14999999999999858 0L 0.14999999999999858 0L-14.950000000000003 0Q-16.950000000000003 0 -17.9-0.85Q-18.85-1.7 -18.85-3.6L-18.85-3.6L-18.85-17.6L-36.55-17.6ZM 49.44999999999998 0L 49.44999999999998 0L 17.849999999999984 0Q 15.949999999999985 0  15.099999999999984-0.85Q 14.249999999999984-1.7  14.249999999999984-3.6L 14.249999999999984-3.6L 14.249999999999984-15.3Q 14.249999999999984-17.2  15.099999999999984-18.05Q 15.949999999999985-18.9  17.849999999999984-18.9L 17.849999999999984-18.9L 44.749999999999986-18.9Q 46.04999999999998-18.9  46.69999999999998-19.75Q 47.34999999999999-20.6  47.34999999999999-21.8L 47.34999999999999-21.8Q 47.34999999999999-23.5  46.69999999999998-24.3Q 46.04999999999998-25.1  44.749999999999986-25.2L 44.749999999999986-25.2L 29.749999999999986-27.3Q 22.749999999999986-28.3  18.499999999999986-31.9Q 14.249999999999984-35.5  14.249999999999984-43.9L 14.249999999999984-43.9L 14.249999999999984-54.4Q 14.249999999999984-62.9  19.749999999999986-67.45Q 25.249999999999986-72  34.94999999999999-72L 34.94999999999999-72L 62.94999999999998-72Q 64.85-72  65.69999999999999-71.15Q 66.54999999999998-70.3  66.54999999999998-68.4L 66.54999999999998-68.4L 66.54999999999998-56.5Q 66.54999999999998-54.6  65.69999999999999-53.75Q 64.85-52.9  62.94999999999998-52.9L 62.94999999999998-52.9L 39.649999999999984-52.9Q 38.34999999999998-52.9  37.649999999999984-52.05Q 36.94999999999999-51.2  36.94999999999999-49.9L 36.94999999999999-49.9Q 36.94999999999999-48.6  37.649999999999984-47.7Q 38.34999999999998-46.8  39.649999999999984-46.7L 39.649999999999984-46.7L 54.54999999999998-44.7Q 61.54999999999998-43.7  65.85-40.1Q 70.14999999999998-36.5  70.14999999999998-28.1L 70.14999999999998-28.1L 70.14999999999998-17.6Q 70.14999999999998-9.1  64.6-4.55Q 59.04999999999998 0  49.44999999999998 0ZM 100.14999999999998 0L 100.14999999999998 0L 84.64999999999998 0Q 82.74999999999997 0  81.89999999999998-0.85Q 81.04999999999998-1.7  81.04999999999998-3.6L 81.04999999999998-3.6L 81.04999999999998-68.4Q 81.04999999999998-70.3  81.89999999999998-71.15Q 82.74999999999997-72  84.64999999999998-72L 84.64999999999998-72L 100.14999999999998-72Q 102.04999999999998-72  102.89999999999998-71.15Q 103.74999999999997-70.3  103.74999999999997-68.4L 103.74999999999997-68.4L 103.74999999999997-45.4L 107.74999999999997-45.4L 118.04999999999998-68.7Q 118.74999999999997-70.5  119.94999999999997-71.25Q 121.14999999999998-72  123.04999999999998-72L 123.04999999999998-72L 138.45-72Q 140.14999999999998-72  140.74999999999997-71.15Q 141.34999999999997-70.3  140.64999999999998-68.7L 140.64999999999998-68.7L 130.45-45.4Q 136.04999999999998-45.1  139.39999999999998-41.45Q 142.74999999999997-37.8  142.74999999999997-31.8L 142.74999999999997-31.8L 142.74999999999997-3.6Q 142.74999999999997-1.7  141.89999999999998-0.85Q 141.04999999999998 0  139.14999999999998 0L 139.14999999999998 0L 123.74999999999997 0Q 121.84999999999998 0  120.99999999999997-0.85Q 120.14999999999998-1.7  120.14999999999998-3.6L 120.14999999999998-3.6L 120.14999999999998-23.1Q 120.14999999999998-24.7  119.34999999999998-25.6Q 118.54999999999998-26.5  116.94999999999997-26.5L 116.94999999999997-26.5L 103.74999999999997-26.5L 103.74999999999997-3.6Q 103.74999999999997-1.7  102.89999999999998-0.85Q 102.04999999999998 0  100.14999999999998 0Z" data-textpath="mask" data-text-anchor="middle" data-font-size="100" data-letterspacing="0" data-side="left" data-offset="0" data-dx="0" data-dy="75" data-href="" data-font="Bungee" data-font-src="/Content/clientfonts/bungee.woff" data-font-scale="contain" transform="translate(0,75)" data-xmlspace="preserve" fill="url('#linearGradientSk7imlbl43w')"></path><rect x="0" y="0" width="0" height="0"></rect></g><g class="svg-text svg-visible" transform="matrix(0.9659,0,0,0.9659,727,412)" style="pointer-events: fill; cursor: move; opacity: 1;"><path fill="none" style="" d="M-135.4,80 C-20,79 20,79 135.4,80"></path><path d="M-83.9 0L-126.5 0Q-128.4 0 -129.25-0.85Q-130.1-1.7 -130.1-3.6L-130.1-3.6L-130.1-15.5Q-130.1-17.4 -129.25-18.25Q-128.4-19.1 -126.5-19.1L-126.5-19.1L-116.60000000000001-19.1L-116.60000000000001-52.7L-126.5-52.7Q-128.4-52.7 -129.25-53.55Q-130.1-54.4 -130.1-56.3L-130.1-56.3L-130.1-68.4Q-130.1-70.3 -129.25-71.15Q-128.4-72 -126.5-72L-126.5-72L-83.9-72Q-82-72 -81.15-71.15Q-80.30000000000001-70.3 -80.30000000000001-68.4L-80.30000000000001-68.4L-80.30000000000001-56.3Q-80.30000000000001-54.4 -81.15-53.55Q-82-52.7 -83.9-52.7L-83.9-52.7L-93.60000000000001-52.7L-93.60000000000001-19.1L-83.9-19.1Q-82-19.1 -81.15-18.25Q-80.30000000000001-17.4 -80.30000000000001-15.5L-80.30000000000001-15.5L-80.30000000000001-3.6Q-80.30000000000001-1.7 -81.15-0.85Q-82 0 -83.9 0L-83.9 0ZM-49.400000000000006 0L-49.400000000000006 0L-64.4 0Q-66.30000000000001 0 -67.15-0.85Q-68-1.7 -68-3.6L-68-3.6L-68-68.4Q-68-70.3 -67.15-71.15Q-66.30000000000001-72 -64.4-72L-64.4-72L-54.00000000000001-72Q-52.10000000000001-72 -50.75000000000001-71.4Q-49.400000000000006-70.8 -48.10000000000001-69.3L-48.10000000000001-69.3L-28.700000000000003-47.1L-28.700000000000003-68.4Q-28.700000000000003-70.3 -27.85000000000001-71.15Q-27.000000000000007-72 -25.10000000000001-72L-25.10000000000001-72L-10.100000000000009-72Q-8.200000000000003-72 -7.3500000000000085-71.15Q-6.5-70.3 -6.5-68.4L-6.5-68.4L-6.5-3.6Q-6.5-1.7 -7.3500000000000085-0.85Q-8.200000000000003 0 -10.100000000000009 0L-10.100000000000009 0L-25.10000000000001 0Q-27.000000000000007 0 -27.85000000000001-0.85Q-28.700000000000003-1.7 -28.700000000000003-3.6L-28.700000000000003-3.6L-28.700000000000003-15.9L-45.800000000000004-36.6L-45.800000000000004-3.6Q-45.800000000000004-1.7 -46.650000000000006-0.85Q-47.50000000000001 0 -49.400000000000006 0ZM 26.4 0L 26.4 0L 10.899999999999999 0Q 8.999999999999998 0  8.149999999999999-0.85Q 7.299999999999999-1.7  7.299999999999999-3.6L 7.299999999999999-3.6L 7.299999999999999-68.4Q 7.299999999999999-70.3  8.149999999999999-71.15Q 8.999999999999998-72  10.899999999999999-72L 10.899999999999999-72L 55.5-72Q 57.4-72  58.25-71.15Q 59.1-70.3  59.1-68.4L 59.1-68.4L 59.1-56.5Q 59.1-54.6  58.25-53.75Q 57.4-52.9  55.5-52.9L 55.5-52.9L 30-52.9L 30-42.5L 47.4-42.5Q 49.3-42.5  50.15-41.65Q 51-40.8  51-38.9L 51-38.9L 51-26.9Q 51-25  50.15-24.15Q 49.3-23.3  47.4-23.3L 47.4-23.3L 30-23.3L 30-3.6Q 30-1.7  29.15-0.85Q 28.299999999999997 0  26.4 0ZM 129.60000000000002-53L 129.60000000000002-18.9Q 129.60000000000002-14.3  128.25-10.55Q 126.9-6.8  123.45000000000002-4.15Q 120-1.5  113.95000000000002 0Q 107.9 1.5  98.60000000000001 1.5L 98.60000000000001 1.5Q 89.30000000000001 1.5  83.20000000000002 0Q 77.10000000000001-1.5  73.65-4.15Q 70.20000000000002-6.8  68.85000000000001-10.55Q 67.50000000000001-14.3  67.50000000000001-18.9L 67.50000000000001-18.9L 67.50000000000001-53Q 67.50000000000001-57.6  68.85000000000001-61.35Q 70.20000000000002-65.1  73.65-67.8Q 77.10000000000001-70.5  83.20000000000002-72Q 89.30000000000001-73.5  98.60000000000001-73.5L 98.60000000000001-73.5Q 107.9-73.5  113.95000000000002-72Q 120-70.5  123.45000000000002-67.8Q 126.9-65.1  128.25-61.35Q 129.60000000000002-57.6  129.60000000000002-53L 129.60000000000002-53ZM 90.20000000000002-49.4L 90.20000000000002-22.5Q 90.20000000000002-20.5  91.70000000000002-19.15Q 93.20000000000002-17.8  98.60000000000001-17.8L 98.60000000000001-17.8Q 104-17.8  105.5-19.15Q 107-20.5  107-22.5L 107-22.5L 107-49.4Q 107-51.3  105.5-52.65Q 104-54  98.60000000000001-54L 98.60000000000001-54Q 93.20000000000002-54  91.70000000000002-52.65Q 90.20000000000002-51.3  90.20000000000002-49.4L 90.20000000000002-49.4Z" data-textpath="info" data-text-anchor="middle" data-font-size="100" data-letterspacing="0" data-side="left" data-offset="0" data-dx="0" data-dy="75" data-href="" data-font="Bungee" data-font-src="/Content/clientfonts/bungee.woff" data-font-scale="contain" transform="translate(0,75)" data-xmlspace="preserve" fill="url('#linearGradientSk7imlbl43z')"></path><rect x="0" y="0" width="0" height="0"></rect></g><g><rect x="0" y="0" width="0" height="0" fill="rgba(255,136,0,0.1)" stroke="#ff8800" style="stroke-width: 1;"></rect></g><g class="selector-part"><rect x="0" y="0" width="0" height="0" fill="rgba(168,202,236,0.5)" stroke="#3399ff" style="stroke-width: 1;"></rect></g><g class="selector-part" transform="matrix(1,0,0,1,596,326)"><rect x="0" y="0" width="0" height="0" fill="none" stroke="#2390bb" style="stroke-width: 2;"></rect><g transform="matrix(0.5,0,0,0.5,0,0)"><svg version="1.1" id="Calque_1" xmlns="http://www.w3.org/2000/svg" xmlns:xlink="http://www.w3.org/1999/xlink" x="0" y="-71px" width="28.94px" height="30px" viewBox="0 -15 28.94 30" enable-background="new 0 -15 28.94 30" xml:space="preserve" style="cursor: pointer;">
<g>
	<path fill="rgba(0,0,0,0)" d="M23.355-9.979c-0.352-0.263-0.712-0.511-1.084-0.739L20.34-7.486c0.317,0.195,0.629,0.414,0.929,0.646
		L23.355-9.979z" style=""></path>
	<path fill="rgba(0,0,0,0)" d="M28.894,0.081L25.092-0.13c0.292,2.317-0.217,4.718-1.539,6.756l-0.037-0.021
		c-0.376,0.583-0.821,1.137-1.335,1.648c-3.808,3.809-9.902,3.942-13.871,0.396C8.282,8.623,8.255,8.602,8.227,8.576
		C8.143,8.498,8.059,8.421,7.976,8.339c-0.052-0.051-0.104-0.1-0.153-0.152C7.8,8.163,7.776,8.14,7.753,8.115
		c-0.084-0.091-0.167-0.18-0.25-0.271v0.002C4.312,4.293,4.087-0.98,6.821-4.782l4.123,4.124l3.401-14.306L0.037-11.566l4.102,4.098
		C-0.064-2.14,0.193,5.554,4.917,10.587l0,0c0.012,0.016,0.023,0.025,0.033,0.037c0.091,0.098,0.181,0.199,0.278,0.293
		c0.021,0.023,0.047,0.043,0.07,0.068c0.075,0.074,0.148,0.146,0.225,0.22c0.051,0.045,0.099,0.086,0.15,0.133
		c0.053,0.047,0.104,0.094,0.156,0.14c0.144,0.13,0.291,0.257,0.439,0.375c0.01,0.012,0.018,0.016,0.027,0.023
		c5.574,4.563,13.804,4.115,18.842-1.194C27.94,7.722,29.185,3.851,28.894,0.081z" style=""></path>
	<path fill="rgba(0,0,0,0)" d="M24.122-3.353l3.544-1.319c-0.426-0.932-0.962-1.826-1.611-2.662L22.88-5.276
		C23.373-4.675,23.79-4.027,24.122-3.353z" style=""></path>
</g>
<desc>Created with Snap</desc><defs></defs><circle cx="14.5" cy="0" r="15" style="" fill="rgba(0,0,0,0)"></circle></svg></g><rect x="0" y="-21" width="0" height="21" fill="rgba(255,255,255,0)" stroke="#2390bb" style="stroke-width: 1; cursor: pointer;"></rect><circle cx="375" cy="187" r="0" fill="#ffffff" stroke="#2390bb" style="stroke-width: 2; cursor: se-resize;"></circle><circle cx="0" cy="187" r="0" fill="#ffffff" stroke="#2390bb" style="stroke-width: 2; cursor: sw-resize;"></circle><circle cx="375" cy="0" r="0" fill="#ffffff" stroke="#2390bb" style="stroke-width: 2; cursor: ne-resize;"></circle><circle cx="0" cy="0" r="0" fill="#ffffff" stroke="#2390bb" style="stroke-width: 2; cursor: nw-resize;"></circle><circle cx="188" cy="187" r="0" fill="#ffffff" stroke="#2390bb" style="stroke-width: 2; cursor: s-resize;"></circle><circle cx="188" cy="0" r="0" fill="#ffffff" stroke="#2390bb" style="stroke-width: 2; cursor: n-resize;"></circle><circle cx="0" cy="94" r="0" fill="#ffffff" stroke="#2390bb" style="stroke-width: 2; cursor: w-resize;"></circle><circle cx="375" cy="94" r="0" fill="#ffffff" stroke="#2390bb" style="stroke-width: 2; cursor: e-resize;"></circle><path stroke="#ff0000" fill="none" style="stroke-width: 3;"></path><line x1="0" x2="0" y1="0" y2="0" fill="rgba(255,255,255,0)" stroke="#2390bb" style="stroke-width: 1;"></line><line x1="0" x2="0" y1="0" y2="0" fill="rgba(255,255,255,0)" stroke="#2390bb" style="stroke-width: 1;"></line><circle cx="0" cy="0" r="0" fill="#ff0000" stroke="#2390bb" style="stroke-width: 2; cursor: pointer;"></circle><circle cx="0" cy="0" r="0" fill="#ffa500" stroke="#2390bb" style="stroke-width: 2; cursor: pointer;"></circle><circle cx="0" cy="0" r="0" fill="#ffa500" stroke="#2390bb" style="stroke-width: 2; cursor: pointer;"></circle><circle cx="0" cy="0" r="0" fill="#ff0000" stroke="#2390bb" style="stroke-width: 2; cursor: pointer;"></circle><g style="cursor: pointer; visibility: hidden; opacity: 0;" transform="matrix(1,0,0,1,-50,-15)"><rect x="0" y="0" width="30" height="30" fill="#2390bb" rx="5" ry="5" style=""></rect><rect x="6" y="6" width="18" height="4" style="" fill="#ffffff"></rect><rect x="6" y="13" width="18" height="4" fill="#ffffff" style=""></rect><rect x="6" y="20" width="18" height="4" fill="#ffffff" style=""></rect></g></g></svg>